<svg xmlns="http://www.w3.org/2000/svg" width="2400" height="1250" viewBox="0 0 2400 1250">
  <defs>
    <style>
      .title{font:700 42px Arial,Helvetica,sans-serif;fill:#111}
      .head{font:700 22px Arial,Helvetica,sans-serif;fill:#151515}
      .label{font:600 18px Arial,Helvetica,sans-serif;fill:#202020}
      .text{font:500 15px Arial,Helvetica,sans-serif;fill:#2b2b2b}
      .tiny{font:500 12px Arial,Helvetica,sans-serif;fill:#333}
      .panel{fill:#fff;stroke-width:2;rx:14}
      .inner{fill:#fff;stroke:#cfd7df;stroke-width:1.4;rx:10}
      .dash{fill:none;stroke:#b9c5d2;stroke-width:1.6;stroke-dasharray:7 7;rx:10}
      .arrow{stroke:#747b83;stroke-width:5;fill:none;marker-end:url(#arrow)}
      .thin-arrow{stroke:#333;stroke-width:2.6;fill:none;marker-end:url(#smallArrow)}
      .bond{stroke:#6d6d6d;stroke-width:2.6;stroke-linecap:round}
      .zn{fill:#8d93a8;stroke:#535a68;stroke-width:1}
      .o{fill:#d93632;stroke:#9f1714;stroke-width:1}
      .c{fill:#4f4f4f;stroke:#252525;stroke-width:1}
      .h{fill:#f7f7f7;stroke:#aaa;stroke-width:1}
      .water{stroke:#5b8fc8}
      .orange{stroke:#dda73c}.green{stroke:#65a978}.blue{stroke:#4f88c7}.purple{stroke:#8b70c9}.pink{stroke:#d86f98}
      .orangeFill{fill:#fff6e6}.greenFill{fill:#eef8ef}.blueFill{fill:#eef6ff}.purpleFill{fill:#f5f0ff}.pinkFill{fill:#fff0f5}
      .keybar{fill:#2466a6}
    </style>
    <marker id="arrow" markerWidth="14" markerHeight="14" refX="12" refY="7" orient="auto">
      <path d="M2,2 L12,7 L2,12 Z" fill="#747b83"/>
    </marker>
    <marker id="smallArrow" markerWidth="12" markerHeight="12" refX="10" refY="6" orient="auto">
      <path d="M2,2 L10,6 L2,10 Z" fill="#333"/>
    </marker>
  </defs>

  <rect width="2400" height="1250" fill="#fbfbfb"/>
  <text x="1200" y="62" text-anchor="middle" class="title">Active Learning Workflow for Neural Network Potential Data Selection from AIMD Trajectories</text>

  <!-- Panel 1 -->
  <g transform="translate(26,110)">
    <rect width="320" height="790" class="panel blue blueFill"/>
    <rect width="320" height="104" class="blueFill blue" rx="14"/>
    <circle cx="48" cy="52" r="28" fill="#4f88c7" stroke="#23619d" stroke-width="2"/>
    <text x="48" y="61" text-anchor="middle" font-family="Arial" font-size="30" font-weight="700" fill="#fff">1</text>
    <text x="108" y="44" class="head">AIMD Trajectory</text>
    <text x="108" y="72" class="head">Generation</text>

    <text x="160" y="145" text-anchor="middle" class="label">ZnO(10-10) interface</text>
    <g transform="translate(42,175)">
      <rect x="0" y="138" width="236" height="22" fill="#d6d9d0" stroke="#b8bbb2"/>
      <g>
        <circle class="zn" cx="20" cy="126" r="12"/><circle class="o" cx="52" cy="126" r="8"/>
        <circle class="zn" cx="84" cy="126" r="12"/><circle class="o" cx="116" cy="126" r="8"/>
        <circle class="zn" cx="148" cy="126" r="12"/><circle class="o" cx="180" cy="126" r="8"/>
        <circle class="zn" cx="212" cy="126" r="12"/>
        <circle class="o" cx="36" cy="100" r="8"/><circle class="zn" cx="68" cy="100" r="12"/>
        <circle class="o" cx="100" cy="100" r="8"/><circle class="zn" cx="132" cy="100" r="12"/>
        <circle class="o" cx="164" cy="100" r="8"/><circle class="zn" cx="196" cy="100" r="12"/>
      </g>
      <g transform="translate(44,28)">
        <line class="bond" x1="0" y1="26" x2="24" y2="12"/><line class="bond" x1="24" y1="12" x2="50" y2="22"/>
        <line class="bond" x1="50" y1="22" x2="76" y2="8"/><line class="bond" x1="76" y1="8" x2="104" y2="18"/>
        <line class="bond" x1="104" y1="18" x2="132" y2="4"/><line class="bond" x1="132" y1="4" x2="160" y2="14"/>
        <line class="bond" x1="160" y1="14" x2="188" y2="0"/><line class="bond" x1="188" y1="0" x2="214" y2="10"/>
        <circle class="c" cx="0" cy="26" r="6"/><circle class="c" cx="24" cy="12" r="6"/><circle class="c" cx="50" cy="22" r="6"/>
        <circle class="c" cx="76" cy="8" r="6"/><circle class="c" cx="104" cy="18" r="6"/><circle class="c" cx="132" cy="4" r="6"/>
        <circle class="c" cx="160" cy="14" r="6"/><circle class="c" cx="188" cy="0" r="6"/><circle class="c" cx="214" cy="10" r="6"/>
        <line class="bond" x1="104" y1="18" x2="104" y2="-12"/><circle class="o" cx="104" cy="-20" r="7"/>
        <path d="M104 24 C105 48,112 64,126 80" fill="none" stroke="#d93632" stroke-width="2.4" stroke-dasharray="6 5"/>
        <text x="130" y="84" class="tiny" fill="#9f1714">reactive adsorption</text>
      </g>
      <g transform="translate(26,45)">
        <line class="bond water" x1="0" y1="0" x2="-13" y2="-11"/><line class="bond water" x1="0" y1="0" x2="14" y2="-10"/>
        <circle class="o" cx="0" cy="0" r="7"/><circle class="h" cx="-17" cy="-14" r="4"/><circle class="h" cx="18" cy="-13" r="4"/>
      </g>
      <g transform="translate(225,54)">
        <line class="bond" x1="0" y1="0" x2="22" y2="0"/>
        <circle class="o" cx="0" cy="0" r="7"/><circle class="o" cx="22" cy="0" r="7"/>
      </g>
    </g>
    <text x="160" y="375" text-anchor="middle" class="text">C9 ketone isomers, H2O, O2</text>

    <rect x="26" y="426" width="268" height="170" class="dash"/>
    <text x="160" y="460" text-anchor="middle" class="label">Trajectory sampling</text>
    <line x1="55" y1="520" x2="265" y2="520" stroke="#333" stroke-width="2"/>
    <circle cx="55" cy="520" r="8" fill="#6fa0d8"/>
    <circle cx="108" cy="520" r="8" fill="#65a978"/>
    <circle cx="160" cy="520" r="8" fill="#dda73c"/>
    <circle cx="212" cy="520" r="8" fill="#d86f98"/>
    <circle cx="265" cy="520" r="8" fill="#8b70c9"/>
    <text x="160" y="560" text-anchor="middle" class="text">representative AIMD frames</text>
    <rect x="38" y="640" width="244" height="74" class="inner"/>
    <text x="160" y="674" text-anchor="middle" class="label">Surface reaction space</text>
    <text x="160" y="700" text-anchor="middle" class="text">adsorption and bond rearrangement</text>
  </g>

  <path class="arrow" d="M358 505 L394 505"/>

  <!-- Panel 2 -->
  <g transform="translate(400,110)">
    <rect width="320" height="790" class="panel green greenFill"/>
    <rect width="320" height="104" class="greenFill green" rx="14"/>
    <circle cx="48" cy="52" r="28" fill="#65a978" stroke="#3c8352" stroke-width="2"/>
    <text x="48" y="61" text-anchor="middle" font-family="Arial" font-size="30" font-weight="700" fill="#fff">2</text>
    <text x="108" y="44" class="head">Bond Change</text>
    <text x="108" y="72" class="head">Detection</text>

    <text x="160" y="145" text-anchor="middle" class="label">Consecutive frames</text>
    <g transform="translate(38,175)">
      <rect x="0" y="0" width="104" height="116" class="inner"/>
      <rect x="178" y="0" width="104" height="116" class="inner"/>
      <path class="thin-arrow" d="M114 58 L166 58"/>
      <text x="52" y="28" text-anchor="middle" class="tiny">Frame t</text>
      <text x="230" y="28" text-anchor="middle" class="tiny">Frame t+1</text>
      <g transform="translate(24,48)">
        <line class="bond" x1="0" y1="30" x2="28" y2="10"/><line class="bond" x1="28" y1="10" x2="58" y2="28"/>
        <circle class="c" cx="0" cy="30" r="6"/><circle class="o" cx="28" cy="10" r="7"/><circle class="c" cx="58" cy="28" r="6"/>
      </g>
      <g transform="translate(202,48)">
        <line class="bond" x1="0" y1="30" x2="28" y2="10"/><line class="bond" x1="28" y1="10" x2="58" y2="28"/>
        <line x1="0" y1="30" x2="58" y2="28" stroke="#2f76cf" stroke-width="3"/>
        <circle class="c" cx="0" cy="30" r="6"/><circle class="o" cx="28" cy="10" r="7"/><circle class="c" cx="58" cy="28" r="6"/>
      </g>
    </g>
    <rect x="40" y="360" width="240" height="100" class="inner"/>
    <text x="160" y="392" text-anchor="middle" class="label">Bond graph diff</text>
    <line x1="92" y1="428" x2="142" y2="428" stroke="#d93632" stroke-width="4"/>
    <text x="168" y="433" class="text">broken</text>
    <line x1="92" y1="452" x2="142" y2="452" stroke="#2f76cf" stroke-width="4"/>
    <text x="168" y="457" class="text">formed</text>
    <rect x="30" y="535" width="260" height="130" class="dash"/>
    <text x="160" y="570" text-anchor="middle" class="label">Event signals</text>
    <text x="160" y="604" text-anchor="middle" class="text">formed bonds</text>
    <text x="160" y="632" text-anchor="middle" class="text">broken bonds</text>
  </g>

  <path class="arrow" d="M732 505 L768 505"/>

  <!-- Panel 3 -->
  <g transform="translate(774,110)">
    <rect width="320" height="790" class="panel orange orangeFill"/>
    <rect width="320" height="104" class="orangeFill orange" rx="14"/>
    <circle cx="48" cy="52" r="28" fill="#dda73c" stroke="#b78420" stroke-width="2"/>
    <text x="48" y="61" text-anchor="middle" font-family="Arial" font-size="30" font-weight="700" fill="#fff">3</text>
    <text x="108" y="44" class="head">Zn-O Coordination</text>
    <text x="108" y="72" class="head">Analysis</text>

    <text x="160" y="145" text-anchor="middle" class="label">Coordination timeline</text>
    <g transform="translate(52,195)">
      <line x1="8" y1="110" x2="208" y2="110" stroke="#333" stroke-width="2"/>
      <circle cx="8" cy="110" r="10" fill="#6fa0d8"/><circle cx="58" cy="88" r="10" fill="#65a978"/>
      <circle cx="108" cy="110" r="10" fill="#dda73c"/><circle cx="158" cy="63" r="10" fill="#e48746"/>
      <circle cx="208" cy="110" r="10" fill="#d86f98"/>
      <polyline points="8,110 58,88 108,110 158,63 208,110" fill="none" stroke="#666" stroke-width="2"/>
      <text x="108" y="152" text-anchor="middle" class="text">CN change events</text>
    </g>
    <rect x="40" y="405" width="240" height="132" class="inner"/>
    <text x="160" y="438" text-anchor="middle" class="label">Event classes</text>
    <text x="160" y="472" text-anchor="middle" class="text">adsorption</text>
    <text x="160" y="500" text-anchor="middle" class="text">desorption</text>
    <text x="160" y="528" text-anchor="middle" class="text">coordination shift</text>
    <rect x="30" y="590" width="260" height="105" class="dash"/>
    <text x="160" y="626" text-anchor="middle" class="label">Selected signals</text>
    <text x="160" y="654" text-anchor="middle" class="text">coordination changes</text>
    <text x="160" y="682" text-anchor="middle" class="text">interface rearrangements</text>
  </g>

  <path class="arrow" d="M1106 505 L1142 505"/>

  <!-- Panel 4 -->
  <g transform="translate(1148,110)">
    <rect width="320" height="790" class="panel purple purpleFill"/>
    <rect width="320" height="104" class="purpleFill purple" rx="14"/>
    <circle cx="48" cy="52" r="28" fill="#8b70c9" stroke="#6b4caf" stroke-width="2"/>
    <text x="48" y="61" text-anchor="middle" font-family="Arial" font-size="30" font-weight="700" fill="#fff">4</text>
    <text x="108" y="44" class="head">Descriptor and</text>
    <text x="108" y="72" class="head">vdW Scoring</text>

    <rect x="38" y="145" width="244" height="120" class="inner"/>
    <text x="160" y="180" text-anchor="middle" class="label">SOAP descriptors</text>
    <text x="160" y="210" text-anchor="middle" class="text">local atomic environments</text>
    <text x="160" y="238" text-anchor="middle" class="text">machine-readable features</text>
    <path class="thin-arrow" d="M160 278 L160 330"/>
    <rect x="38" y="350" width="244" height="190" class="inner"/>
    <text x="160" y="383" text-anchor="middle" class="label">vdW interaction score</text>
    <rect x="70" y="412" width="180" height="32" fill="#eef8ef" stroke="#65a978"/>
    <text x="160" y="434" text-anchor="middle" class="tiny">organic - surface</text>
    <rect x="70" y="458" width="180" height="32" fill="#eef6ff" stroke="#4f88c7"/>
    <text x="160" y="480" text-anchor="middle" class="tiny">water - surface</text>
    <rect x="70" y="504" width="180" height="32" fill="#fff6e6" stroke="#dda73c"/>
    <text x="160" y="526" text-anchor="middle" class="tiny">organic - water</text>
    <rect x="30" y="600" width="260" height="110" class="dash"/>
    <text x="160" y="637" text-anchor="middle" class="label">Ranking cues</text>
    <text x="160" y="665" text-anchor="middle" class="text">descriptor novelty</text>
    <text x="160" y="692" text-anchor="middle" class="text">vdW-sensitive interfaces</text>
  </g>

  <path class="arrow" d="M1480 505 L1516 505"/>

  <!-- Panel 5 -->
  <g transform="translate(1522,110)">
    <rect width="410" height="790" class="panel pink pinkFill"/>
    <rect width="410" height="104" class="pinkFill pink" rx="14"/>
    <circle cx="50" cy="52" r="28" fill="#d86f98" stroke="#b94f79" stroke-width="2"/>
    <text x="50" y="61" text-anchor="middle" font-family="Arial" font-size="30" font-weight="700" fill="#fff">5</text>
    <text x="112" y="44" class="head">Neural Network</text>
    <text x="112" y="72" class="head">Structure Selector</text>

    <g transform="translate(28,145)">
      <rect x="0" y="0" width="142" height="310" class="inner"/>
      <text x="71" y="30" text-anchor="middle" class="label">Inputs</text>
      <rect x="20" y="58" width="102" height="48" fill="#eef8ef" stroke="#65a978" rx="6"/>
      <text x="71" y="87" text-anchor="middle" class="tiny">bond labels</text>
      <rect x="20" y="128" width="102" height="48" fill="#fff6e6" stroke="#dda73c" rx="6"/>
      <text x="71" y="157" text-anchor="middle" class="tiny">Zn-O labels</text>
      <rect x="20" y="198" width="102" height="48" fill="#f5f0ff" stroke="#8b70c9" rx="6"/>
      <text x="71" y="227" text-anchor="middle" class="tiny">SOAP features</text>
      <rect x="20" y="268" width="102" height="28" fill="#fff0f5" stroke="#d86f98" rx="6"/>
      <text x="71" y="288" text-anchor="middle" class="tiny">vdW score</text>

      <path class="thin-arrow" d="M150 155 L205 155"/>
      <rect x="214" y="0" width="150" height="310" class="inner"/>
      <text x="289" y="30" text-anchor="middle" class="label">MLP scoring</text>
      <rect x="244" y="62" width="90" height="36" fill="#f5f0ff" stroke="#8b70c9" rx="5"/>
      <text x="289" y="85" text-anchor="middle" class="tiny">Input</text>
      <path class="thin-arrow" d="M289 102 L289 128"/>
      <rect x="232" y="132" width="114" height="42" fill="#f5f0ff" stroke="#8b70c9" rx="5"/>
      <text x="289" y="158" text-anchor="middle" class="tiny">Hidden ReLU</text>
      <path class="thin-arrow" d="M289 178 L289 204"/>
      <rect x="232" y="208" width="114" height="42" fill="#f5f0ff" stroke="#8b70c9" rx="5"/>
      <text x="289" y="234" text-anchor="middle" class="tiny">Hidden ReLU</text>
      <path class="thin-arrow" d="M289 254 L289 280"/>
      <rect x="244" y="284" width="90" height="36" fill="#f5f0ff" stroke="#8b70c9" rx="5"/>
      <text x="289" y="307" text-anchor="middle" class="tiny">Score</text>
    </g>
    <rect x="38" y="540" width="334" height="132" class="inner"/>
    <text x="205" y="575" text-anchor="middle" class="label">Structure ranking</text>
    <rect x="70" y="602" width="220" height="16" fill="#f1c4d5"/>
    <rect x="70" y="632" width="180" height="16" fill="#f1c4d5"/>
    <rect x="70" y="662" width="135" height="16" fill="#f1c4d5"/>
    <rect x="54" y="710" width="300" height="48" class="dash"/>
    <text x="205" y="740" text-anchor="middle" class="text">high-value structure candidates</text>
  </g>

  <path class="arrow" d="M1944 505 L1980 505"/>

  <!-- Panel 6 -->
  <g transform="translate(1986,110)">
    <rect width="388" height="790" class="panel blue blueFill"/>
    <rect width="388" height="104" class="blueFill blue" rx="14"/>
    <circle cx="50" cy="52" r="28" fill="#4f88c7" stroke="#23619d" stroke-width="2"/>
    <text x="50" y="61" text-anchor="middle" font-family="Arial" font-size="30" font-weight="700" fill="#fff">6</text>
    <text x="112" y="44" class="head">Final Training</text>
    <text x="112" y="72" class="head">Dataset Assembly</text>

    <rect x="40" y="140" width="308" height="92" class="dash"/>
    <text x="194" y="175" text-anchor="middle" class="label">candidate aggregation</text>
    <text x="194" y="207" text-anchor="middle" class="text">merge ranked candidates</text>
    <path class="thin-arrow" d="M194 250 L194 305"/>
    <rect x="40" y="326" width="308" height="92" class="dash"/>
    <text x="194" y="360" text-anchor="middle" class="label">deduplication</text>
    <g transform="translate(113,379)" opacity=".75">
      <circle cx="0" cy="0" r="30" fill="none" stroke="#555"/><circle cx="42" cy="0" r="30" fill="none" stroke="#4f88c7"/>
      <circle cx="84" cy="0" r="30" fill="none" stroke="#65a978"/><circle cx="126" cy="0" r="30" fill="none" stroke="#dda73c"/>
    </g>
    <path class="thin-arrow" d="M194 438 L194 493"/>
    <rect x="40" y="514" width="308" height="92" class="dash"/>
    <text x="194" y="548" text-anchor="middle" class="label">provenance tracking</text>
    <rect x="96" y="566" width="196" height="28" fill="#fff" stroke="#aaa"/>
    <line x1="145" y1="566" x2="145" y2="594" stroke="#ccc"/><line x1="194" y1="566" x2="194" y2="594" stroke="#ccc"/><line x1="243" y1="566" x2="243" y2="594" stroke="#ccc"/>
    <text x="170" y="587" text-anchor="middle" class="tiny">✓</text><text x="220" y="587" text-anchor="middle" class="tiny">✓</text><text x="268" y="587" text-anchor="middle" class="tiny">✓</text>
    <path class="thin-arrow" d="M194 626 L194 670"/>
    <rect x="40" y="688" width="308" height="70" class="inner"/>
    <text x="194" y="720" text-anchor="middle" class="label">dataset split</text>
    <text x="194" y="746" text-anchor="middle" class="text">ready for NNP training</text>
  </g>

  <!-- Bottom workflow summary -->
  <g transform="translate(26,970)">
    <rect x="0" y="0" width="2348" height="178" fill="#fff" stroke="#4f88c7" stroke-width="2" rx="14"/>
    <rect x="0" y="0" width="145" height="178" class="keybar" rx="14"/>
    <text x="72" y="70" text-anchor="middle" font-family="Arial" font-size="28" font-weight="700" fill="#fff">Core</text>
    <text x="72" y="110" text-anchor="middle" font-family="Arial" font-size="28" font-weight="700" fill="#fff">Logic</text>

    <g transform="translate(190,30)">
      <circle cx="48" cy="58" r="48" fill="#eef6ff" stroke="#4f88c7"/>
      <line class="bond" x1="28" y1="64" x2="48" y2="42"/><line class="bond" x1="48" y1="42" x2="72" y2="63"/>
      <circle class="c" cx="28" cy="64" r="7"/><circle class="o" cx="48" cy="42" r="7"/><circle class="c" cx="72" cy="63" r="7"/>
      <text x="120" y="42" class="label">Chemical event detection</text>
      <text x="120" y="72" class="text">bond formation, bond breaking</text>
      <text x="120" y="100" class="text">and Zn-O coordination shifts</text>
    </g>

    <g transform="translate(720,30)">
      <circle cx="48" cy="58" r="48" fill="#eef8ef" stroke="#65a978"/>
      <text x="48" y="68" text-anchor="middle" font-family="Arial" font-size="46" fill="#65a978">★</text>
      <text x="120" y="42" class="label">Feature-based ranking</text>
      <text x="120" y="72" class="text">SOAP representation and vdW cues</text>
      <text x="120" y="100" class="text">support structure selection</text>
    </g>

    <g transform="translate(1280,30)">
      <circle cx="48" cy="58" r="48" fill="#fff6e6" stroke="#dda73c"/>
      <ellipse cx="48" cy="38" rx="28" ry="10" fill="#fff" stroke="#111" stroke-width="2"/>
      <path d="M20 38 v48 c0 6 56 6 56 0 v-48" fill="none" stroke="#111" stroke-width="2"/>
      <text x="120" y="42" class="label">MLP structure selector</text>
      <text x="120" y="72" class="text">learns selection score</text>
      <text x="120" y="100" class="text">not energy or force prediction</text>
    </g>

    <g transform="translate(1820,30)">
      <circle cx="48" cy="58" r="48" fill="#f5f0ff" stroke="#8b70c9"/>
      <path d="M48 58 L48 12 A46 46 0 0 1 94 58 Z" fill="#8b70c9"/>
      <path d="M48 58 L94 58 A46 46 0 1 1 48 12 Z" fill="#d8c9fb"/>
      <text x="120" y="42" class="label">Final data assembly</text>
      <text x="120" y="72" class="text">deduplication and provenance</text>
      <text x="120" y="100" class="text">prepare NNP training set</text>
    </g>
  </g>

  <!-- Return arrows to workflow summary -->
  <path class="arrow" d="M560 904 L560 955"/>
  <path class="arrow" d="M934 904 L934 955"/>
  <path class="arrow" d="M1308 904 L1308 955"/>
  <path class="arrow" d="M1727 904 L1727 955"/>
  <path class="arrow" d="M2180 904 L2180 955"/>
</svg>
